PathFileType	4	(X/Y/Z)	c:\Git\powerlifing_model_clean\simulations\HC835B\Session1\HC835B_OGW_0006\marker_experimental.trc
DataRate	CameraRate	NumFrames	NumMarkers	Units	OrigDataRate	OrigDataStartFrame	OrigNumFrames
240.000000	240.000000	4	38	mm	240.000000	0	433
Frame#	Time	RPSI			LPSI			RASI			LASI			RTH1			RTH2			RTH3			RTH4			RSK1			RSK2			RSK3			RSK4			RCAL1			RCAL2			RCAL3			RST			RPT			RTN			RFMB			RSMB			RVMB			RFMH			RSMH			RVMH			RPM			LTH1			LTH2			LTH3			LTH4			LSK1			LSK2			LSK3			LSK4			LCAL1			LCAL2			LCAL3			LFMH			LVMH			
		X1	Y1	Z1	X2	Y2	Z2	X3	Y3	Z3	X4	Y4	Z4	X5	Y5	Z5	X6	Y6	Z6	X7	Y7	Z7	X8	Y8	Z8	X9	Y9	Z9	X10	Y10	Z10	X11	Y11	Z11	X12	Y12	Z12	X13	Y13	Z13	X14	Y14	Z14	X15	Y15	Z15	X16	Y16	Z16	X17	Y17	Z17	X18	Y18	Z18	X19	Y19	Z19	X20	Y20	Z20	X21	Y21	Z21	X22	Y22	Z22	X23	Y23	Z23	X24	Y24	Z24	X25	Y25	Z25	X26	Y26	Z26	X27	Y27	Z27	X28	Y28	Z28	X29	Y29	Z29	X30	Y30	Z30	X31	Y31	Z31	X32	Y32	Z32	X33	Y33	Z33	X34	Y34	Z34	X35	Y35	Z35	X36	Y36	Z36	X37	Y37	Z37	X38	Y38	Z38	

1	0	504.075653076172	1103.246704101563	-2615.8525390625	614.2869873046876	1109.727172851563	-2620.2412109375	460.2178344726564	1062.923095703125	-2405.750732421875	702.5497436523439	1060.329833984375	-2418.710205078125	380.0422973632813	796.6821899414065	-2391.699462890625	391.4393615722657	808.4363403320315	-2334.174560546875	390.9136047363282	730.0222778320314	-2341.483154296875	411.8581542968751	739.9642333984376	-2287.06787109375	433.3470764160157	290.6458129882813	-2257.256591796875	424.2996826171876	297.8863525390626	-2195.582275390625	435.9085388183595	243.809799194336	-2222.026611328125	438.9086303710939	252.6216278076172	-2161.966796875	501.8621826171876	85.78388977050783	-2212.185546875	535.0369873046876	57.88108825683595	-2187.2685546875	473.2037963867189	47.27992630004884	-2198.548583984375	537.0793457031251	97.99000549316409	-2130.568359375	438.7342224121095	73.68194580078126	-2150.56494140625	509.8548583984376	130.3068542480469	-2085.6953125	503.5872192382814	124.1504821777344	-2050.207763671875	452.7128295898439	142.9958801269532	-2055.265869140625	424.2517395019532	62.67134475708009	-2101.37109375	501.610565185547	113.6302566528321	-1989.313354492188	445.4894409179689	126.8772430419922	-1989.686157226563	393.2002563476564	74.67371368408205	-2028.0185546875	446.4687500000001	140.2064514160157	-1934.894653320313	754.8569335937501	799.2705078125002	-2567.699951171875	747.2450561523439	774.7891235351565	-2512.32373046875	743.3744506835939	714.1435546875001	-2566.966796875	720.9374389648439	692.7763671875001	-2514.29541015625	694.6505737304689	292.5138244628907	-2765.29443359375	700.9412231445314	261.9488220214844	-2721.269287109375	689.6755981445314	235.0722656250001	-2762.58349609375	681.9467163085939	206.6601104736329	-2714.01171875	627.7968139648439	93.48073577880861	-2850.57958984375	657.7683715820314	57.37440872192384	-2855.0849609375	600.9403686523439	53.53365325927736	-2848.159912109375	615.9985351562501	47.79638671875001	-2623.076904296875	717.4185791015626	25.41005325317384	-2672.1259765625	
2	0.004166666666666667	503.7121887207032	1101.5478515625	-2608.627197265625	613.8214721679689	1108.349243164063	-2613.138427734375	459.9102478027345	1061.0478515625	-2398.507568359375	702.3476562500001	1058.516967773438	-2411.58447265625	380.3137512207032	794.003601074219	-2385.988037109375	392.2750854492189	805.2691040039065	-2328.5439453125	391.4792480468751	726.9439697265626	-2336.425048828125	412.8764648437501	736.5616455078126	-2282.11279296875	433.8209228515626	289.1521911621094	-2244.833251953125	423.4942932128907	299.2801208496094	-2181.944091796875	436.1809692382814	243.1615753173829	-2208.5859375	437.0567626953126	254.1705474853516	-2147.799560546875	501.7612609863282	84.29857635498048	-2195.012451171875	535.0704345703126	57.25683593750001	-2169.156494140625	473.0042419433595	46.54888916015626	-2180.3173828125	537.2484130859376	98.99282073974612	-2113.534912109375	438.890106201172	74.84050750732423	-2133.06201171875	510.9483642578126	133.2039184570313	-2068.767822265625	503.7835693359376	127.3310852050782	-2033.923217773438	452.9606323242189	146.5371856689453	-2039.764404296875	424.1634521484376	65.07287597656251	-2083.652587890625	501.6652832031251	118.4129638671875	-1972.729858398438	445.6615295410157	132.0442047119141	-1973.614135742188	393.0770874023439	79.22022247314455	-2010.681518554688	446.6607360839845	146.8376159667969	-1919.234741210938	754.8657836914064	798.674499511719	-2562.37646484375	747.4815063476564	773.809753417969	-2507.17236328125	743.3419189453126	713.6076049804689	-2562.14306640625	721.2804565429689	691.7330322265626	-2509.56396484375	694.6196289062501	293.1266174316407	-2763.3173828125	700.9298706054689	262.2783508300782	-2719.54443359375	689.5066528320314	235.3579101562501	-2760.92822265625	682.0128784179689	206.8177337646485	-2712.662109375	627.8304443359376	94.67362213134767	-2850.0859375	657.6754760742189	58.33577728271486	-2854.74951171875	600.7637939453126	54.64066314697267	-2847.616943359375	616.1094970703126	47.73225784301759	-2622.77783203125	717.4113159179689	25.35099029541016	-2672.05419921875	
3	0.008333333333333333	503.3156738281251	1099.819702148438	-2601.378173828125	613.3895263671876	1106.903564453125	-2606.014404296875	459.6745910644532	1059.314331054688	-2391.217529296875	702.4273681640626	1056.567626953125	-2405.38818359375	380.3695068359376	791.4539184570315	-2380.30029296875	392.971405029297	802.2127685546877	-2322.890869140625	391.8074645996095	723.8871459960939	-2331.363037109375	413.8881225585939	733.0589599609376	-2277.2119140625	433.9308471679689	287.9759826660157	-2232.415771484375	424.0688476562501	299.1076354980469	-2170.097900390625	436.5427856445314	242.4970397949219	-2195.43408203125	437.6495971679689	255.4192199707032	-2134.579833984375	502.0989074707032	83.40505218505861	-2178.267578125	535.4031372070314	56.79184722900392	-2151.542236328125	473.2626037597657	46.4455795288086	-2162.62060546875	535.4865112304689	98.38423919677737	-2094.6220703125	439.1134338378907	75.81408691406251	-2116.095703125	511.4627990722657	135.4863586425782	-2053.2197265625	504.2442932128907	130.4913330078125	-2018.283813476563	453.4758605957032	149.6177215576172	-2024.5078125	424.2872924804689	67.48934173583986	-2066.558837890625	501.9085388183595	123.1115646362305	-1956.865600585938	445.9437255859376	136.7512817382813	-1958.05859375	393.2257080078126	83.62510681152345	-1993.985473632813	447.0310668945314	153.1586303710938	-1904.166748046875	754.9622192382814	798.1287231445315	-2557.037841796875	747.6281738281251	772.9517822265627	-2501.8896484375	743.3922119140626	712.9888916015626	-2557.2294921875	721.6157836914064	690.8020629882814	-2504.65673828125	694.6340942382814	293.7344970703126	-2761.239013671875	700.9812622070314	262.5786743164063	-2717.73681640625	689.6323242187501	236.0136260986329	-2759.329833984375	681.9736328125001	207.0743103027344	-2711.251220703125	627.8700561523439	95.86119842529298	-2849.553955078125	657.6495971679689	59.32870864868165	-2854.334716796875	600.8461303710939	55.69046020507814	-2847.461181640625	616.2827148437501	47.73978424072266	-2622.48291015625	717.4605102539064	25.24704170227051	-2671.99853515625	
4	0.0125	502.9379882812501	1098.066284179688	-2594.12451171875	612.9692993164064	1105.437866210938	-2598.897705078125	459.4968566894532	1057.445678710938	-2383.97998046875	702.1999511718751	1054.867431640625	-2398.04150390625	380.2195434570313	788.9697265625002	-2374.524658203125	393.4399719238282	799.4556884765627	-2317.007080078125	391.9704589843751	720.8833007812501	-2326.203857421875	414.7660217285157	729.6240844726564	-2272.2353515625	432.5834960937501	288.2397155761719	-2218.309814453125	424.7078857421876	298.7455444335938	-2158.53369140625	437.0652160644532	241.7379150390626	-2182.680419921875	439.3152160644532	255.5039978027344	-2122.14501953125	503.0996704101564	83.16918945312501	-2161.9892578125	535.9594726562501	56.67634582519533	-2134.7197265625	473.7879028320314	46.27802276611329	-2145.55615234375	536.0626220703126	99.47673797607425	-2078.74462890625	439.6917419433595	76.79452514648439	-2099.764892578125	511.9751892089845	137.6548767089844	-2038.16943359375	504.7605590820314	133.5694122314453	-2003.158203125	454.0790405273439	152.6273803710938	-2009.93115234375	424.6986389160157	69.75724029541017	-2050.04833984375	502.3912963867189	127.6444549560547	-1941.650512695313	446.4456176757814	141.4192504882813	-1943.180053710938	393.7375793457032	87.75437927246095	-1977.937622070313	447.5852966308595	159.177978515625	-1889.731079101563	754.8681030273439	797.5228271484377	-2551.564453125	747.9157104492189	772.055114746094	-2496.53857421875	743.4670410156251	712.3970336914064	-2552.169921875	721.9504394531251	689.8020019531251	-2499.606689453125	694.6873779296876	294.3550415039063	-2759.10205078125	701.0570678710939	262.7913208007813	-2715.843017578125	689.6184692382814	236.6092376708985	-2757.5810546875	682.1304321289064	207.3761596679688	-2709.807861328125	627.9210205078126	96.95469665527347	-2848.968505859375	657.7563476562501	60.78795242309572	-2853.91357421875	600.8115844726564	56.94186401367189	-2847.04638671875	616.6491088867189	47.81214904785157	-2622.074951171875	717.4818115234376	25.25121688842774	-2671.91259765625	
